<?xml version="1.0" encoding="utf-8"?>
<!-- Generator: Adobe Illustrator 27.7.0, SVG Export Plug-In . SVG Version: 6.00 Build 0)  -->
<svg version="1.1" id="editieren" xmlns="http://www.w3.org/2000/svg" xmlns:xlink="http://www.w3.org/1999/xlink" x="0px" y="0px"
	 viewBox="0 0 44 44" style="enable-background:new 0 0 44 44;" xml:space="preserve">
<style type="text/css">
	.st0{fill:#01823C;}
	.st1{fill:#FFFFFF;}
</style>
<circle id="Ellipse_126" class="st0" cx="22" cy="22" r="22"/>
<path id="edit_document_FILL0_wght400_GRAD0_opsz48" class="st1" d="M22,16l1.6,1.6l-9.3,9.3v2.9h2.9l9.3-9.3L28,22l-9.5,9.5
	c-0.3,0.3-0.7,0.5-1.2,0.5h-4.5c-0.5,0-0.8-0.4-0.9-0.9v-4.5c0-0.5,0.2-0.9,0.5-1.2L22,16z M28,22L22,16l3.5-3.5
	c0.6-0.7,1.7-0.7,2.3-0.1c0,0,0,0,0.1,0.1l3.7,3.7c0.7,0.6,0.7,1.7,0.1,2.3c0,0,0,0-0.1,0.1L28,22z"/>
</svg>
