<svg id="editieren" xmlns="http://www.w3.org/2000/svg" width="44" height="44" viewBox="0 0 44 44">
  <circle id="Ellipse_126" data-name="Ellipse 126" cx="22" cy="22" r="22" fill="#009b1a"/>
  <path id="edit_document_FILL0_wght400_GRAD0_opsz48" d="M300.916,319.328l1.586,1.586-9.292,9.292V333.1H296.1l9.292-9.292,1.586,1.586-9.462,9.462a1.6,1.6,0,0,1-1.19.51h-4.533a.871.871,0,0,1-.85-.85V329.98a1.6,1.6,0,0,1,.51-1.19Zm6.062,6.062-6.062-6.062,3.456-3.456a1.643,1.643,0,0,1,2.38,0l3.683,3.683a1.643,1.643,0,0,1,0,2.38Z" transform="translate(-278.944 -303.362)" fill="#fff"/>
</svg>
