<svg xmlns="http://www.w3.org/2000/svg" width="20" height="20.763" viewBox="0 0 20 20.763">
  <path id="delete" d="M104.026,192.763a2.423,2.423,0,0,1-1.769-.723,2.372,2.372,0,0,1-.731-1.751V175.737h-.289a1.237,1.237,0,1,1,0-2.474h4.868a1.235,1.235,0,0,1,.359-.895,1.178,1.178,0,0,1,.878-.368h5.316a1.275,1.275,0,0,1,1.263,1.263h4.842a1.237,1.237,0,1,1,0,2.474h-.289v14.553a2.372,2.372,0,0,1-.731,1.751,2.423,2.423,0,0,1-1.769.723Zm0-17.026v14.553h11.947V175.737Zm2.658,11.5a.957.957,0,0,0,.3.7.975.975,0,0,0,.711.3.987.987,0,0,0,.714-.3.952.952,0,0,0,.3-.7v-8.474a.98.98,0,0,0-.312-.717,1,1,0,0,0-.724-.31.924.924,0,0,0-.7.31,1.018,1.018,0,0,0-.289.717Zm4.605,0a.938.938,0,0,0,.312.7,1.02,1.02,0,0,0,.724.3.987.987,0,0,0,.714-.3.952.952,0,0,0,.3-.7v-8.474a.992.992,0,0,0-.3-.717,1,1,0,0,0-1.446,0,1,1,0,0,0-.3.717Zm-7.263-11.5v0Z" transform="translate(-100 -172)" fill="#fff"/>
</svg>
