<svg xmlns="http://www.w3.org/2000/svg" width="40" height="40" viewBox="0 0 40 40">
  <g id="highlights" transform="translate(-17 -2694)">
    <circle id="Ellipse_106" data-name="Ellipse 106" cx="20" cy="20" r="20" transform="translate(17 2694)" fill="#009b1a"/>
    <path id="checkmark21" d="M22.579,9.292l-2.862-2.53a.439.439,0,0,0-.623.04L8.714,18.687,5.023,13.773a.44.44,0,0,0-.291-.172.433.433,0,0,0-.327.085L1.366,16a.446.446,0,0,0-.086.622l6.834,9.1a.442.442,0,0,0,.336.176h.016a.44.44,0,0,0,.332-.151L22.619,9.918A.446.446,0,0,0,22.579,9.292Z" transform="translate(25.04 2698.119)" fill="#fff"/>
  </g>
</svg>
