<?xml version="1.0" encoding="utf-8"?>
<!-- Generator: Adobe Illustrator 28.0.0, SVG Export Plug-In . SVG Version: 6.00 Build 0)  -->
<svg version="1.1" id="Ebene_1" xmlns="http://www.w3.org/2000/svg" xmlns:xlink="http://www.w3.org/1999/xlink" x="0px" y="0px"
	 viewBox="0 0 420.9 297.6" style="enable-background:new 0 0 420.9 297.6;" xml:space="preserve">
<style type="text/css">
	.st0{fill:#999999;}
	.st1{fill:none;stroke:#999999;stroke-width:11;stroke-miterlimit:10;}
	.st2{fill:none;stroke:#999999;stroke-width:11;stroke-linecap:round;stroke-linejoin:round;stroke-miterlimit:10;}
</style>
<g>
	<path class="st0" d="M392.6,11c9.6,0,17.3,7.8,17.3,17.3v240.9c0,9.6-7.8,17.3-17.3,17.3H28.3c-9.6,0-17.3-7.8-17.3-17.3V28.3
		C11,18.8,18.8,11,28.3,11H392.6 M392.6,0H28.3C12.8,0,0,12.8,0,28.3v240.9c0,15.6,12.8,28.3,28.3,28.3h364.3
		c15.6,0,28.3-12.8,28.3-28.3V28.3C420.9,12.8,408.2,0,392.6,0L392.6,0z"/>
</g>
<circle class="st1" cx="79" cy="81.3" r="28.2"/>
<polyline class="st2" points="24.8,287.8 117.8,194.8 214.4,289.9 "/>
<polyline class="st2" points="156.5,230 248.9,137.7 400.5,289.3 "/>
</svg>
