<svg xmlns="http://www.w3.org/2000/svg" width="20" height="18" viewBox="0 0 20 18">
  <path id="profile" d="M89.988,230.35a4.185,4.185,0,0,0,4.262-4.262,4.083,4.083,0,0,0-1.225-3.025,4.147,4.147,0,0,0-3.037-1.213,4.143,4.143,0,0,0-4.238,4.238,4.147,4.147,0,0,0,1.213,3.038A4.083,4.083,0,0,0,89.988,230.35Zm0-1.5a2.637,2.637,0,0,1-1.962-.788,2.7,2.7,0,0,1-.775-1.975,2.651,2.651,0,0,1,2.738-2.737,2.7,2.7,0,0,1,1.975.775,2.637,2.637,0,0,1,.787,1.962,2.692,2.692,0,0,1-2.762,2.763ZM81.5,234a1.538,1.538,0,0,1-1.5-1.5V219.675a1.453,1.453,0,0,1,.45-1.037,1.421,1.421,0,0,1,1.05-.463h3.675L87,216h6l1.825,2.175H98.5a1.587,1.587,0,0,1,1.5,1.5V232.5a1.421,1.421,0,0,1-.462,1.05A1.453,1.453,0,0,1,98.5,234Zm17-1.5V219.675H94.125L92.3,217.5H87.7l-1.825,2.175H81.5V232.5ZM90,226.1Z" transform="translate(-80 -216)" fill="#fff"/>
</svg>
