<svg xmlns="http://www.w3.org/2000/svg" width="21.5" height="21.5" viewBox="0 0 21.5 21.5">
  <path id="save_profile" data-name="save profile" d="M88.951,188.889l-2.573-2.573a.786.786,0,0,0-.577-.236.83.83,0,0,0-.6.262.824.824,0,0,0,0,1.155l3.2,3.229a.761.761,0,0,0,1.1,0l6.274-6.274a.826.826,0,0,0,0-1.208.889.889,0,0,0-1.207.026ZM90.5,197a10.16,10.16,0,0,1-4.069-.827,10.579,10.579,0,0,1-5.6-5.6,10.488,10.488,0,0,1,0-8.164,10.493,10.493,0,0,1,2.258-3.334,10.764,10.764,0,0,1,3.347-2.244,10.488,10.488,0,0,1,8.164,0,10.484,10.484,0,0,1,5.578,5.578,10.488,10.488,0,0,1,0,8.164,10.763,10.763,0,0,1-2.244,3.347,10.493,10.493,0,0,1-3.334,2.258A10.224,10.224,0,0,1,90.5,197Zm0-1.575a8.917,8.917,0,1,0-6.313-2.612A8.588,8.588,0,0,0,90.5,195.425ZM90.5,186.5Z" transform="translate(-79.75 -175.75)" fill="#fff" stroke="#fff" stroke-width="0.5"/>
</svg>
