<?xml version="1.0" encoding="UTF-8"?><svg id="uuid-f54b6598-ea73-4bc9-8495-25457e9dbde7" xmlns="http://www.w3.org/2000/svg" viewBox="0 0 350 200"><defs><style>.uuid-47febe9f-f3ea-4d5f-9b97-a841de757fe3{fill:#fff;}.uuid-63d4999e-88bf-40a9-addd-4edc22b0db18{fill:#a0abc0;}.uuid-ef0b605c-e2c5-4dc9-80e9-b3e230cf5309{fill:#717d96;}</style></defs><g><g><path class="uuid-63d4999e-88bf-40a9-addd-4edc22b0db18" d="M338.79,197.51h-126.73c-2.76,0-5-2.24-5-5V7.1c0-2.76,2.24-5,5-5h91.4l-.09,41.95,40.41-.04V192.51c0,2.76-2.24,5-5,5Z"/><path class="uuid-63d4999e-88bf-40a9-addd-4edc22b0db18" d="M311.01,36.28c0-11.76,0-23.41,0-34.73,11.54,11.54,23.21,23.21,34.74,34.73-11.22,0-22.89,0-34.74,0Z"/></g><g><rect class="uuid-47febe9f-f3ea-4d5f-9b97-a841de757fe3" x="231.82" y="76.96" width="81.97" height="7.88" transform="translate(545.62 161.81) rotate(-180)"/><rect class="uuid-47febe9f-f3ea-4d5f-9b97-a841de757fe3" x="232.38" y="98.77" width="81.97" height="7.88" transform="translate(546.72 205.42) rotate(-180)"/><rect class="uuid-47febe9f-f3ea-4d5f-9b97-a841de757fe3" x="232.65" y="120.3" width="81.97" height="7.88" transform="translate(547.28 248.48) rotate(-180)"/><rect class="uuid-47febe9f-f3ea-4d5f-9b97-a841de757fe3" x="233.02" y="142.98" width="81.97" height="7.88" transform="translate(548.02 293.85) rotate(-180)"/></g></g><rect class="uuid-ef0b605c-e2c5-4dc9-80e9-b3e230cf5309" x="2.72" y="77.98" width="195.43" height="21.91" rx="5" ry="5"/><rect class="uuid-ef0b605c-e2c5-4dc9-80e9-b3e230cf5309" x="3.43" y="109.88" width="195.43" height="21.91" rx="5" ry="5"/><rect class="uuid-ef0b605c-e2c5-4dc9-80e9-b3e230cf5309" x="2.71" y="1.92" width="195.43" height="64.45" rx="5" ry="5"/><rect class="uuid-ef0b605c-e2c5-4dc9-80e9-b3e230cf5309" x="69.37" y="141.95" width="129.49" height="21.91" rx="5" ry="5"/><rect class="uuid-ef0b605c-e2c5-4dc9-80e9-b3e230cf5309" x="69.31" y="175.98" width="129.49" height="21.91" rx="5" ry="5"/><g><path class="uuid-47febe9f-f3ea-4d5f-9b97-a841de757fe3" d="M42.09,29.49h-4.37c0-3.93-3.5-6.56-7.87-6.56s-7.87,3.06-7.87,6.56h-4.37c0-6.12,5.68-11.37,12.24-11.37,6.56,0,12.24,4.81,12.24,11.37Z"/><path class="uuid-47febe9f-f3ea-4d5f-9b97-a841de757fe3" d="M62.3,29.49h-4.37c0-3.93-3.5-6.56-7.87-6.56s-7.87,3.06-7.87,6.56h-4.37c0-6.12,5.68-11.37,12.24-11.37,6.56,0,12.24,4.81,12.24,11.37Z"/><path class="uuid-47febe9f-f3ea-4d5f-9b97-a841de757fe3" d="M49.95,46.98c-6.99,0-12.24-4.81-12.24-11.37h4.37c0,3.93,3.5,6.56,7.87,6.56s7.87-3.06,7.87-6.56h4.37c.44,6.12-5.25,11.37-12.24,11.37Z"/><path class="uuid-47febe9f-f3ea-4d5f-9b97-a841de757fe3" d="M29.85,46.98c-6.99,0-12.24-4.81-12.24-11.37h4.37c0,3.93,3.5,6.56,7.87,6.56s7.87-3.06,7.87-6.56h4.37c0,6.12-5.68,11.37-12.24,11.37Z"/><rect class="uuid-47febe9f-f3ea-4d5f-9b97-a841de757fe3" x="37.76" y="30.8" width="4.37" height="3.5"/></g><g><ellipse class="uuid-ef0b605c-e2c5-4dc9-80e9-b3e230cf5309" cx="33.41" cy="168.54" rx="28.68" ry="29.35"/><polygon class="uuid-47febe9f-f3ea-4d5f-9b97-a841de757fe3" points="38.66 170 38.66 149.71 28.16 149.71 28.16 170 21.43 170 33.66 187.37 45.39 170 38.66 170"/></g></svg>