<?xml version="1.0" encoding="UTF-8"?><svg id="uuid-971906de-4952-49b0-9f33-446bc659c314" xmlns="http://www.w3.org/2000/svg" viewBox="0 0 350 200"><defs><style>.uuid-c37323f8-1c27-4d59-bb93-0f9079cfceac,.uuid-6b1aaec3-8446-4ef1-a0f8-736b3a996319,.uuid-ecb93799-8124-4368-a947-0c2526d6eaa2{fill:#fff;}.uuid-12fd0d29-b057-490b-833c-7813617b5317{fill:#a0abc0;}.uuid-bb7c4147-5e98-43ff-a2a8-8e375d9bb0f5{fill:#717d96;}.uuid-6b1aaec3-8446-4ef1-a0f8-736b3a996319{opacity:.62;}.uuid-ecb93799-8124-4368-a947-0c2526d6eaa2{opacity:.5;}</style></defs><rect class="uuid-12fd0d29-b057-490b-833c-7813617b5317" x="121.72" y="5.4" width="216.15" height="188.27" rx="5" ry="5"/><rect class="uuid-bb7c4147-5e98-43ff-a2a8-8e375d9bb0f5" x="6.75" y="5.4" width="105.93" height="188.27" rx="5" ry="5" transform="translate(119.42 199.08) rotate(180)"/><g><g><path class="uuid-6b1aaec3-8446-4ef1-a0f8-736b3a996319" d="M241.29,147.12h-64.92c-8.32,0-13.69-7.21-9.88-13.27l32.79-52.07c4.16-6.6,15.71-6.57,19.8,.07l32.13,52.07c3.73,6.05-1.64,13.2-9.92,13.2Z"/><path class="uuid-ecb93799-8124-4368-a947-0c2526d6eaa2" d="M279.16,147.12h-49.85c-6.39,0-10.52-5.54-7.59-10.19l25.18-39.99c3.19-5.07,12.06-5.04,15.21,.05l24.67,39.99c2.87,4.65-1.26,10.14-7.62,10.14Z"/><circle class="uuid-c37323f8-1c27-4d59-bb93-0f9079cfceac" cx="232.01" cy="59.75" r="11.4"/></g><path class="uuid-c37323f8-1c27-4d59-bb93-0f9079cfceac" d="M297.46,171.38H160.34c-7.24,0-13.13-5.89-13.13-13.13V42.57c0-7.25,5.89-13.14,13.13-13.14h137.12c7.24,0,13.13,5.89,13.13,13.14v115.69c0,7.24-5.89,13.13-13.13,13.13ZM160.34,35.68c-3.79,0-6.87,3.09-6.87,6.88v115.69c0,3.79,3.08,6.87,6.87,6.87h137.12c3.79,0,6.87-3.08,6.87-6.87V42.57c0-3.79-3.08-6.88-6.87-6.88H160.34Z"/></g><g><path class="uuid-c37323f8-1c27-4d59-bb93-0f9079cfceac" d="M41.73,33.93h-4.37c0-3.93-3.5-6.56-7.87-6.56s-7.87,3.06-7.87,6.56h-4.37c0-6.12,5.68-11.37,12.24-11.37,6.56,0,12.24,4.81,12.24,11.37Z"/><path class="uuid-c37323f8-1c27-4d59-bb93-0f9079cfceac" d="M61.94,33.93h-4.37c0-3.93-3.5-6.56-7.87-6.56s-7.87,3.06-7.87,6.56h-4.37c0-6.12,5.68-11.37,12.24-11.37,6.56,0,12.24,4.81,12.24,11.37Z"/><path class="uuid-c37323f8-1c27-4d59-bb93-0f9079cfceac" d="M49.6,51.42c-6.99,0-12.24-4.81-12.24-11.37h4.37c0,3.93,3.5,6.56,7.87,6.56s7.87-3.06,7.87-6.56h4.37c.44,6.12-5.25,11.37-12.24,11.37Z"/><path class="uuid-c37323f8-1c27-4d59-bb93-0f9079cfceac" d="M29.49,51.42c-6.99,0-12.24-4.81-12.24-11.37h4.37c0,3.93,3.5,6.56,7.87,6.56s7.87-3.06,7.87-6.56h4.37c0,6.12-5.68,11.37-12.24,11.37Z"/><rect class="uuid-c37323f8-1c27-4d59-bb93-0f9079cfceac" x="37.4" y="35.25" width="4.37" height="3.5"/></g></svg>