<?xml version="1.0" encoding="UTF-8"?><svg id="uuid-7de53f8a-f951-4424-a008-02a96c5a950c" xmlns="http://www.w3.org/2000/svg" viewBox="0 0 350 200"><defs><style>.uuid-93b35622-a99e-4f69-b0a1-573984e28ace,.uuid-f889060b-ffb1-4ab8-b3e2-bf54098ab06a,.uuid-11180b93-3800-4d3a-9be0-a8ed54b04bd4{fill:#fff;}.uuid-ad5ca434-d13c-4bf3-8493-8c31bbe427d5{fill:#a0abc0;}.uuid-c12e3853-d5f1-4432-816e-7a8ba64a2e27{fill:#717d96;}.uuid-f889060b-ffb1-4ab8-b3e2-bf54098ab06a{opacity:.62;}.uuid-11180b93-3800-4d3a-9be0-a8ed54b04bd4{opacity:.5;}</style></defs><g><rect class="uuid-ad5ca434-d13c-4bf3-8493-8c31bbe427d5" x="127.39" y="4.71" width="216.15" height="188.27" rx="4.88" ry="4.88"/><rect class="uuid-c12e3853-d5f1-4432-816e-7a8ba64a2e27" x="12.42" y="4.71" width="105.93" height="188.27" rx="3.42" ry="3.42" transform="translate(130.77 197.69) rotate(180)"/><g><g><g><path class="uuid-f889060b-ffb1-4ab8-b3e2-bf54098ab06a" d="M193.08,82.41h-34.8c-4.46,0-7.34-3.87-5.3-7.11l17.58-27.91c2.23-3.54,8.42-3.52,10.62,.04l17.22,27.91c2,3.24-.88,7.08-5.32,7.08Z"/><path class="uuid-11180b93-3800-4d3a-9be0-a8ed54b04bd4" d="M213.38,82.41h-26.72c-3.43,0-5.64-2.97-4.07-5.46l13.5-21.44c1.71-2.72,6.47-2.7,8.15,.03l13.23,21.44c1.54,2.49-.67,5.44-4.08,5.44Z"/><circle class="uuid-93b35622-a99e-4f69-b0a1-573984e28ace" cx="188.1" cy="35.57" r="6.11"/></g><path class="uuid-93b35622-a99e-4f69-b0a1-573984e28ace" d="M223.19,95.41h-73.51c-3.88,0-7.04-3.16-7.04-7.04V26.36c0-3.89,3.16-7.05,7.04-7.05h73.51c3.88,0,7.04,3.16,7.04,7.05v62.02c0,3.88-3.16,7.04-7.04,7.04ZM149.68,22.67c-2.03,0-3.68,1.66-3.68,3.69v62.02c0,2.03,1.65,3.68,3.68,3.68h73.51c2.03,0,3.68-1.65,3.68-3.68V26.36c0-2.03-1.65-3.69-3.68-3.69h-73.51Z"/></g><g><g><path class="uuid-f889060b-ffb1-4ab8-b3e2-bf54098ab06a" d="M293.28,82.41h-34.8c-4.46,0-7.34-3.87-5.3-7.11l17.58-27.91c2.23-3.54,8.42-3.52,10.62,.04l17.22,27.91c2,3.24-.88,7.08-5.32,7.08Z"/><path class="uuid-11180b93-3800-4d3a-9be0-a8ed54b04bd4" d="M313.58,82.41h-26.72c-3.43,0-5.64-2.97-4.07-5.46l13.5-21.44c1.71-2.72,6.47-2.7,8.15,.03l13.23,21.44c1.54,2.49-.67,5.44-4.08,5.44Z"/><circle class="uuid-93b35622-a99e-4f69-b0a1-573984e28ace" cx="288.31" cy="35.57" r="6.11"/></g><path class="uuid-93b35622-a99e-4f69-b0a1-573984e28ace" d="M323.39,95.41h-73.51c-3.88,0-7.04-3.16-7.04-7.04V26.36c0-3.89,3.16-7.05,7.04-7.05h73.51c3.88,0,7.04,3.16,7.04,7.05v62.02c0,3.88-3.16,7.04-7.04,7.04ZM249.88,22.67c-2.03,0-3.68,1.66-3.68,3.69v62.02c0,2.03,1.65,3.68,3.68,3.68h73.51c2.03,0,3.68-1.65,3.68-3.68V26.36c0-2.03-1.65-3.69-3.68-3.69h-73.51Z"/></g><g><g><path class="uuid-f889060b-ffb1-4ab8-b3e2-bf54098ab06a" d="M192.61,169.22h-34.8c-4.46,0-7.34-3.87-5.3-7.11l17.58-27.91c2.23-3.54,8.42-3.52,10.62,.04l17.22,27.91c2,3.24-.88,7.08-5.32,7.08Z"/><path class="uuid-11180b93-3800-4d3a-9be0-a8ed54b04bd4" d="M212.91,169.22h-26.72c-3.43,0-5.64-2.97-4.07-5.46l13.5-21.44c1.71-2.72,6.47-2.7,8.15,.03l13.23,21.44c1.54,2.49-.67,5.44-4.08,5.44Z"/><circle class="uuid-93b35622-a99e-4f69-b0a1-573984e28ace" cx="187.64" cy="122.38" r="6.11"/></g><path class="uuid-93b35622-a99e-4f69-b0a1-573984e28ace" d="M222.73,182.23h-73.51c-3.88,0-7.04-3.16-7.04-7.04v-62.02c0-3.89,3.16-7.05,7.04-7.05h73.51c3.88,0,7.04,3.16,7.04,7.05v62.02c0,3.88-3.16,7.04-7.04,7.04Zm-73.51-72.75c-2.03,0-3.68,1.66-3.68,3.69v62.02c0,2.03,1.65,3.68,3.68,3.68h73.51c2.03,0,3.68-1.65,3.68-3.68v-62.02c0-2.03-1.65-3.69-3.68-3.69h-73.51Z"/></g><g><g><path class="uuid-f889060b-ffb1-4ab8-b3e2-bf54098ab06a" d="M292.82,169.22h-34.8c-4.46,0-7.34-3.87-5.3-7.11l17.58-27.91c2.23-3.54,8.42-3.52,10.62,.04l17.22,27.91c2,3.24-.88,7.08-5.32,7.08Z"/><path class="uuid-11180b93-3800-4d3a-9be0-a8ed54b04bd4" d="M313.12,169.22h-26.72c-3.43,0-5.64-2.97-4.07-5.46l13.5-21.44c1.71-2.72,6.47-2.7,8.15,.03l13.23,21.44c1.54,2.49-.67,5.44-4.08,5.44Z"/><circle class="uuid-93b35622-a99e-4f69-b0a1-573984e28ace" cx="287.84" cy="122.38" r="6.11"/></g><path class="uuid-93b35622-a99e-4f69-b0a1-573984e28ace" d="M322.93,182.23h-73.51c-3.88,0-7.04-3.16-7.04-7.04v-62.02c0-3.89,3.16-7.05,7.04-7.05h73.51c3.88,0,7.04,3.16,7.04,7.05v62.02c0,3.88-3.16,7.04-7.04,7.04Zm-73.51-72.75c-2.03,0-3.68,1.66-3.68,3.69v62.02c0,2.03,1.65,3.68,3.68,3.68h73.51c2.03,0,3.68-1.65,3.68-3.68v-62.02c0-2.03-1.65-3.69-3.68-3.69h-73.51Z"/></g></g></g><g><path class="uuid-93b35622-a99e-4f69-b0a1-573984e28ace" d="M47.4,33.24h-4.37c0-3.93-3.5-6.56-7.87-6.56s-7.87,3.06-7.87,6.56h-4.37c0-6.12,5.68-11.37,12.24-11.37,6.56,0,12.24,4.81,12.24,11.37Z"/><path class="uuid-93b35622-a99e-4f69-b0a1-573984e28ace" d="M67.61,33.24h-4.37c0-3.93-3.5-6.56-7.87-6.56s-7.87,3.06-7.87,6.56h-4.37c0-6.12,5.68-11.37,12.24-11.37,6.56,0,12.24,4.81,12.24,11.37Z"/><path class="uuid-93b35622-a99e-4f69-b0a1-573984e28ace" d="M55.27,50.72c-6.99,0-12.24-4.81-12.24-11.37h4.37c0,3.93,3.5,6.56,7.87,6.56s7.87-3.06,7.87-6.56h4.37c.44,6.12-5.25,11.37-12.24,11.37Z"/><path class="uuid-93b35622-a99e-4f69-b0a1-573984e28ace" d="M35.16,50.72c-6.99,0-12.24-4.81-12.24-11.37h4.37c0,3.93,3.5,6.56,7.87,6.56s7.87-3.06,7.87-6.56h4.37c0,6.12-5.68,11.37-12.24,11.37Z"/><rect class="uuid-93b35622-a99e-4f69-b0a1-573984e28ace" x="43.07" y="34.55" width="4.37" height="3.5"/></g></svg>