<?xml version="1.0" encoding="UTF-8"?><svg xmlns="http://www.w3.org/2000/svg" viewBox="0 0 350 200"><defs><style>.uuid-e7a0e106-80e1-432b-8570-acda4f3ba169{fill:#fff;}.uuid-502fc0f3-a673-4ecf-9f96-e7bc8c326825{fill:#a0abc0;}.uuid-bb556fbf-873a-4245-aca2-8108b3df49a4{fill:#717d96;}</style></defs><g id="uuid-6a5740ca-8e4e-4826-8146-b42e559eb19c"><g><path class="uuid-502fc0f3-a673-4ecf-9f96-e7bc8c326825" d="M339.27,198.77h-127.65c-2.76,0-5-2.24-5-5V6.53c0-2.76,2.24-5,5-5h92.05l-.09,42.34,40.68-.04V193.77c0,2.76-2.24,5-5,5Z"/><path class="uuid-502fc0f3-a673-4ecf-9f96-e7bc8c326825" d="M311.27,36.03c0-11.87,0-23.63,0-35.05,11.62,11.65,23.37,23.43,34.97,35.05-11.3,0-23.04,0-34.97,0Z"/></g><g><path class="uuid-e7a0e106-80e1-432b-8570-acda4f3ba169" d="M248.55,119.27c2.22,0,4.45,.09,6.66-.05,.72-.05,1.71-.53,2.06-1.13,4.67-7.95,9.27-15.93,13.79-23.96,.36-.65,.31-1.86-.06-2.53-1.99-3.69-4.24-7.24-6.2-10.95-3.06-5.76-2.67-11.46,1.15-16.71,3.8-5.23,9.18-7.19,15.42-6.03,6.22,1.16,10.22,5.1,12.02,11.18,1.25,4.19,.56,8.19-1.57,11.95-2.01,3.54-4.11,7.02-6.03,10.61-.36,.67-.37,1.88,0,2.53,4.49,7.97,9.1,15.88,13.62,23.84,.55,.96,1.17,1.29,2.25,1.27,4.06-.06,8.12-.05,12.19-.02,7.87,.07,13.99,5.31,15.42,13.16,1.26,6.96-3.02,14.39-9.78,16.97-7.14,2.73-14.99,0-18.98-6.69-2.09-3.49-4.1-7.03-6.08-10.58-.55-.98-1.13-1.46-2.34-1.45-9.14,.06-18.28,.05-27.42,0-1.13,0-1.69,.41-2.21,1.34-2.02,3.61-4.05,7.21-6.18,10.74-3.8,6.31-10.99,9.07-17.93,6.99-6.76-2.03-11.29-8.59-10.97-15.87,.35-7.74,6.97-14.35,14.7-14.59,2.16-.07,4.32-.01,6.47-.01,0,0,0-.01,0-.02Zm21.36-.13h17.01c-2.86-4.96-5.59-9.7-8.5-14.76-2.92,5.06-5.65,9.8-8.5,14.76Zm8.5-37.63c1.42-2.56,2.74-4.7,3.82-6.96,.79-1.65,.07-3.62-1.42-4.72-1.36-1-3.44-1.01-4.81,0-1.5,1.1-2.22,3.07-1.43,4.72,1.09,2.26,2.41,4.4,3.83,6.97Zm-28.36,49.23c-2.73,0-5.07-.06-7.41,.02-1.93,.07-3.48,1.52-3.81,3.39-.32,1.8,.78,3.81,2.46,4.5,1.74,.71,3.86,.21,4.9-1.39,1.31-2,2.44-4.12,3.85-6.52Zm56.72,.04c1.44,2.42,2.62,4.64,4.03,6.71,1.02,1.49,3.15,1.85,4.8,1.11,1.56-.7,2.58-2.46,2.4-4.18-.19-1.8-1.61-3.5-3.38-3.61-2.49-.15-5.01-.04-7.86-.04Z"/><g><path class="uuid-502fc0f3-a673-4ecf-9f96-e7bc8c326825" d="M269.91,119.14c2.86-4.96,5.59-9.7,8.5-14.76,2.92,5.06,5.65,9.8,8.5,14.76h-17.01Z"/><path class="uuid-502fc0f3-a673-4ecf-9f96-e7bc8c326825" d="M278.41,81.51c-1.42-2.56-2.74-4.71-3.83-6.97-.79-1.64-.07-3.62,1.43-4.72,1.37-1,3.44-1,4.81,0,1.49,1.1,2.21,3.07,1.42,4.72-1.09,2.26-2.4,4.4-3.82,6.96Z"/><path class="uuid-502fc0f3-a673-4ecf-9f96-e7bc8c326825" d="M250.05,130.74c-1.41,2.4-2.54,4.52-3.85,6.52-1.05,1.6-3.17,2.1-4.9,1.39-1.69-.7-2.79-2.7-2.46-4.5,.33-1.87,1.88-3.32,3.81-3.39,2.33-.08,4.67-.02,7.41-.02Z"/><path class="uuid-502fc0f3-a673-4ecf-9f96-e7bc8c326825" d="M306.77,130.77c2.85,0,5.36-.11,7.86,.04,1.77,.11,3.19,1.8,3.38,3.61,.18,1.71-.83,3.48-2.4,4.18-1.65,.73-3.79,.38-4.8-1.11-1.41-2.07-2.6-4.29-4.03-6.71Z"/></g></g><rect class="uuid-bb556fbf-873a-4245-aca2-8108b3df49a4" x="2.72" y="77.98" width="195.43" height="21.91" rx="5" ry="5"/><rect class="uuid-bb556fbf-873a-4245-aca2-8108b3df49a4" x="3.43" y="109.88" width="195.43" height="21.91" rx="5" ry="5"/><rect class="uuid-bb556fbf-873a-4245-aca2-8108b3df49a4" x="2.71" y="1.92" width="195.43" height="64.45" rx="5" ry="5"/><rect class="uuid-bb556fbf-873a-4245-aca2-8108b3df49a4" x="69.37" y="141.95" width="129.49" height="21.91" rx="5" ry="5"/><rect class="uuid-bb556fbf-873a-4245-aca2-8108b3df49a4" x="69.31" y="175.98" width="129.49" height="21.91" rx="5" ry="5"/><g><path class="uuid-e7a0e106-80e1-432b-8570-acda4f3ba169" d="M42.09,29.49h-4.37c0-3.93-3.5-6.56-7.87-6.56s-7.87,3.06-7.87,6.56h-4.37c0-6.12,5.68-11.37,12.24-11.37,6.56,0,12.24,4.81,12.24,11.37Z"/><path class="uuid-e7a0e106-80e1-432b-8570-acda4f3ba169" d="M62.3,29.49h-4.37c0-3.93-3.5-6.56-7.87-6.56s-7.87,3.06-7.87,6.56h-4.37c0-6.12,5.68-11.37,12.24-11.37,6.56,0,12.24,4.81,12.24,11.37Z"/><path class="uuid-e7a0e106-80e1-432b-8570-acda4f3ba169" d="M49.95,46.98c-6.99,0-12.24-4.81-12.24-11.37h4.37c0,3.93,3.5,6.56,7.87,6.56s7.87-3.06,7.87-6.56h4.37c.44,6.12-5.25,11.37-12.24,11.37Z"/><path class="uuid-e7a0e106-80e1-432b-8570-acda4f3ba169" d="M29.85,46.98c-6.99,0-12.24-4.81-12.24-11.37h4.37c0,3.93,3.5,6.56,7.87,6.56s7.87-3.06,7.87-6.56h4.37c0,6.12-5.68,11.37-12.24,11.37Z"/><rect class="uuid-e7a0e106-80e1-432b-8570-acda4f3ba169" x="37.76" y="30.8" width="4.37" height="3.5"/></g></g><g id="uuid-55618cf3-ac8c-439f-bbc4-9838eb71ff50"><g><ellipse class="uuid-bb556fbf-873a-4245-aca2-8108b3df49a4" cx="33.41" cy="168.54" rx="28.68" ry="29.35"/><polygon class="uuid-e7a0e106-80e1-432b-8570-acda4f3ba169" points="38.66 170 38.66 149.71 28.16 149.71 28.16 170 21.43 170 33.66 187.37 45.39 170 38.66 170"/></g></g></svg>