<svg xmlns="http://www.w3.org/2000/svg" width="31" height="31" viewBox="0 0 31 31">
  <path id="download" d="M766.983,349.433l6.612-6.408a1.724,1.724,0,0,0-2.4-2.472l-3.686,3.57V329.768a1.724,1.724,0,0,0-3.448,0v14.355l-3.685-3.572a1.723,1.723,0,0,0-2.588,2.273c.029.033.059.065.091.1s.07.07.1.1l6.611,6.408A1.724,1.724,0,0,0,766.983,349.433Zm10.447,9.621H754.088a3.827,3.827,0,0,1-3.829-3.824h0v-7.385a1.745,1.745,0,0,1,3.49,0v7.387a.343.343,0,0,0,.338.338h23.343a.345.345,0,0,0,.339-.338v-7.387a1.745,1.745,0,0,1,3.491,0v7.387A3.834,3.834,0,0,1,777.43,359.054Z" transform="translate(-750.259 -328.054)" fill="#fff"/>
</svg>
