<?xml version="1.0" encoding="utf-8"?>
<!-- Generator: Adobe Illustrator 28.0.0, SVG Export Plug-In . SVG Version: 6.00 Build 0)  -->
<svg version="1.1" id="Ebene_1" xmlns="http://www.w3.org/2000/svg" xmlns:xlink="http://www.w3.org/1999/xlink" x="0px" y="0px"
	 viewBox="0 0 611.68 244.67" style="enable-background:new 0 0 611.68 244.67;" xml:space="preserve">
<style type="text/css">
	.st0{fill:#A4FCFE;}
	.st1{fill:#1D1D1B;}
	.st2{fill:#C8A4FB;}
	.st3{fill:#93D7FA;}
	.st4{fill:#D696D2;}
	.st5{fill:#81ACFA;}
	.st6{fill:#F5D686;}
	.st7{fill:#768BF8;}
	.st8{fill:#E97E78;}
	.st9{fill:#A178F8;}
	.st10{fill:#FFFFFF;}
	.st11{fill:#707070;}
</style>
<rect x="-0.1" y="0.24" class="st0" width="122.34" height="122.34"/>
<g>
	<path class="st1" d="M65.43,81.82h-5.27V46.9L49.6,50.78v-4.76l15.01-5.64h0.82V81.82z"/>
</g>
<rect x="-0.1" y="122.58" class="st2" width="122.34" height="122.34"/>
<g>
	<path class="st1" d="M32.86,204.15h-5.27v-34.92l-10.56,3.88v-4.76l15.01-5.64h0.82V204.15z"/>
	<path class="st1" d="M74.07,186.57c0,6.14-1.05,10.7-3.14,13.68s-5.37,4.47-9.83,4.47c-4.4,0-7.66-1.46-9.77-4.38
		c-2.11-2.92-3.21-7.27-3.29-13.07v-7c0-6.06,1.05-10.56,3.14-13.51s5.38-4.42,9.86-4.42c4.44,0,7.7,1.42,9.8,4.26
		c2.1,2.84,3.17,7.23,3.23,13.16V186.57z M68.83,179.4c0-4.44-0.62-7.67-1.87-9.7c-1.25-2.03-3.22-3.04-5.92-3.04
		c-2.68,0-4.64,1.01-5.86,3.03c-1.23,2.02-1.86,5.13-1.9,9.32v8.38c0,4.46,0.65,7.75,1.94,9.87c1.29,2.12,3.25,3.19,5.88,3.19
		c2.59,0,4.51-1,5.76-3c1.26-2,1.91-5.15,1.97-9.46V179.4z"/>
	<path class="st1" d="M106.63,186.57c0,6.14-1.05,10.7-3.14,13.68s-5.37,4.47-9.83,4.47c-4.4,0-7.66-1.46-9.77-4.38
		c-2.11-2.92-3.21-7.27-3.29-13.07v-7c0-6.06,1.05-10.56,3.14-13.51s5.38-4.42,9.86-4.42c4.44,0,7.7,1.42,9.8,4.26
		c2.1,2.84,3.17,7.23,3.23,13.16V186.57z M101.39,179.4c0-4.44-0.62-7.67-1.87-9.7c-1.25-2.03-3.22-3.04-5.92-3.04
		c-2.68,0-4.64,1.01-5.86,3.03c-1.23,2.02-1.86,5.13-1.9,9.32v8.38c0,4.46,0.65,7.75,1.94,9.87c1.29,2.12,3.25,3.19,5.88,3.19
		c2.59,0,4.51-1,5.76-3c1.26-2,1.91-5.15,1.97-9.46V179.4z"/>
</g>
<rect x="122.23" y="0.24" class="st3" width="122.34" height="122.34"/>
<g>
	<path class="st1" d="M181.28,81.82h-27.02v-3.77l14.27-15.86c2.11-2.4,3.57-4.35,4.38-5.85c0.8-1.5,1.2-3.05,1.2-4.66
		c0-2.15-0.65-3.92-1.95-5.3c-1.3-1.38-3.04-2.07-5.21-2.07c-2.61,0-4.63,0.74-6.07,2.22c-1.44,1.48-2.17,3.54-2.17,6.19h-5.24
		c0-3.79,1.22-6.86,3.67-9.2c2.44-2.34,5.72-3.51,9.81-3.51c3.83,0,6.86,1.01,9.09,3.02c2.23,2.01,3.34,4.69,3.34,8.03
		c0,4.06-2.59,8.89-7.76,14.5l-11.04,11.98h20.7V81.82z"/>
	<path class="st1" d="M212.69,64.23c0,6.14-1.05,10.7-3.14,13.68c-2.1,2.98-5.37,4.47-9.83,4.47c-4.4,0-7.66-1.46-9.77-4.38
		c-2.11-2.92-3.21-7.27-3.29-13.07v-7c0-6.06,1.05-10.56,3.14-13.51s5.38-4.42,9.86-4.42c4.44,0,7.7,1.42,9.8,4.26
		c2.1,2.84,3.17,7.23,3.23,13.15V64.23z M207.45,57.07c0-4.44-0.62-7.67-1.87-9.7c-1.25-2.03-3.22-3.04-5.92-3.04
		c-2.68,0-4.64,1.01-5.86,3.03c-1.23,2.02-1.86,5.13-1.9,9.32v8.38c0,4.46,0.65,7.75,1.94,9.87c1.29,2.12,3.25,3.19,5.88,3.19
		c2.59,0,4.51-1,5.76-3c1.26-2,1.91-5.15,1.97-9.46V57.07z"/>
</g>
<rect x="122.23" y="122.58" class="st4" width="122.34" height="122.34"/>
<g>
	<path class="st1" d="M155.19,204.15h-5.27v-34.92l-10.56,3.88v-4.76l15.01-5.64h0.82V204.15z"/>
	<path class="st1" d="M172.95,183.48l2.1-20.56h21.13v4.84h-16.68l-1.25,11.24c2.02-1.19,4.31-1.78,6.88-1.78
		c3.76,0,6.74,1.24,8.95,3.72c2.21,2.48,3.31,5.84,3.31,10.07c0,4.25-1.15,7.59-3.44,10.04c-2.29,2.45-5.5,3.67-9.61,3.67
		c-3.64,0-6.62-1.01-8.92-3.03c-2.3-2.02-3.62-4.81-3.94-8.38h4.96c0.32,2.36,1.16,4.14,2.52,5.34c1.36,1.2,3.15,1.8,5.38,1.8
		c2.44,0,4.35-0.83,5.73-2.49s2.08-3.96,2.08-6.88c0-2.76-0.75-4.97-2.25-6.64c-1.5-1.67-3.5-2.51-5.99-2.51
		c-2.28,0-4.08,0.5-5.38,1.5l-1.39,1.13L172.95,183.48z"/>
	<path class="st1" d="M228.97,186.57c0,6.14-1.05,10.7-3.14,13.68s-5.37,4.47-9.83,4.47c-4.4,0-7.66-1.46-9.77-4.38
		c-2.11-2.92-3.21-7.27-3.29-13.07v-7c0-6.06,1.05-10.56,3.14-13.51s5.38-4.42,9.86-4.42c4.44,0,7.7,1.42,9.8,4.26
		c2.1,2.84,3.17,7.23,3.23,13.16V186.57z M223.73,179.4c0-4.44-0.62-7.67-1.87-9.7c-1.25-2.03-3.22-3.04-5.92-3.04
		c-2.68,0-4.64,1.01-5.86,3.03c-1.23,2.02-1.86,5.13-1.9,9.32v8.38c0,4.46,0.65,7.75,1.94,9.87c1.29,2.12,3.25,3.19,5.88,3.19
		c2.59,0,4.51-1,5.76-3c1.25-2,1.91-5.15,1.97-9.46V179.4z"/>
</g>
<rect x="244.57" y="0.24" class="st5" width="122.33" height="122.34"/>
<g>
	<path class="st1" d="M298.71,67.97h5.72v4.28h-5.72v9.57h-5.27v-9.57h-18.78v-3.09l18.46-28.58h5.58V67.97z M280.62,67.97h12.83
		V47.75l-0.62,1.13L280.62,67.97z"/>
	<path class="st1" d="M335.02,64.23c0,6.14-1.05,10.7-3.14,13.68c-2.1,2.98-5.37,4.47-9.83,4.47c-4.4,0-7.66-1.46-9.77-4.38
		s-3.21-7.27-3.29-13.07v-7c0-6.06,1.05-10.56,3.14-13.51s5.38-4.42,9.86-4.42c4.44,0,7.7,1.42,9.8,4.26
		c2.1,2.84,3.17,7.23,3.23,13.15V64.23z M329.78,57.07c0-4.44-0.62-7.67-1.87-9.7c-1.25-2.03-3.22-3.04-5.92-3.04
		c-2.68,0-4.63,1.01-5.86,3.03c-1.23,2.02-1.86,5.13-1.9,9.32v8.38c0,4.46,0.65,7.75,1.94,9.87c1.29,2.12,3.25,3.19,5.88,3.19
		c2.59,0,4.51-1,5.76-3c1.25-2,1.91-5.15,1.97-9.46V57.07z"/>
</g>
<rect x="244.57" y="122.58" class="st6" width="122.33" height="122.34"/>
<g>
	<path class="st1" d="M287.33,204.15h-27.02v-3.77l14.27-15.86c2.11-2.4,3.57-4.35,4.38-5.85c0.8-1.5,1.2-3.05,1.2-4.66
		c0-2.15-0.65-3.92-1.95-5.3s-3.04-2.07-5.21-2.07c-2.61,0-4.63,0.74-6.08,2.22c-1.44,1.48-2.17,3.54-2.17,6.19h-5.24
		c0-3.79,1.22-6.86,3.67-9.2c2.45-2.34,5.72-3.51,9.81-3.51c3.83,0,6.86,1.01,9.09,3.02c2.23,2.01,3.34,4.69,3.34,8.03
		c0,4.06-2.59,8.89-7.76,14.5l-11.04,11.98h20.7V204.15z"/>
	<path class="st1" d="M318.74,186.57c0,6.14-1.05,10.7-3.14,13.68s-5.37,4.47-9.83,4.47c-4.4,0-7.66-1.46-9.77-4.38
		c-2.11-2.92-3.21-7.27-3.29-13.07v-7c0-6.06,1.05-10.56,3.14-13.51s5.38-4.42,9.86-4.42c4.44,0,7.7,1.42,9.8,4.26
		c2.1,2.84,3.17,7.23,3.23,13.16V186.57z M313.5,179.4c0-4.44-0.62-7.67-1.87-9.7c-1.25-2.03-3.22-3.04-5.92-3.04
		c-2.68,0-4.63,1.01-5.86,3.03s-1.86,5.13-1.9,9.32v8.38c0,4.46,0.65,7.75,1.94,9.87c1.29,2.12,3.25,3.19,5.88,3.19
		c2.59,0,4.51-1,5.76-3c1.25-2,1.91-5.15,1.97-9.46V179.4z"/>
	<path class="st1" d="M351.31,186.57c0,6.14-1.05,10.7-3.14,13.68s-5.37,4.47-9.83,4.47c-4.4,0-7.66-1.46-9.77-4.38
		c-2.11-2.92-3.21-7.27-3.29-13.07v-7c0-6.06,1.05-10.56,3.14-13.51s5.38-4.42,9.86-4.42c4.44,0,7.7,1.42,9.8,4.26
		c2.1,2.84,3.17,7.23,3.23,13.16V186.57z M346.07,179.4c0-4.44-0.62-7.67-1.87-9.7c-1.25-2.03-3.22-3.04-5.92-3.04
		c-2.68,0-4.63,1.01-5.86,3.03s-1.86,5.13-1.9,9.32v8.38c0,4.46,0.65,7.75,1.94,9.87c1.29,2.12,3.25,3.19,5.88,3.19
		c2.59,0,4.51-1,5.76-3c1.25-2,1.91-5.15,1.97-9.46V179.4z"/>
</g>
<rect x="366.91" y="0.24" class="st7" width="122.34" height="122.34"/>
<g>
	<path class="st1" d="M419.49,40.56V45h-0.96c-4.08,0.08-7.33,1.28-9.74,3.62c-2.42,2.34-3.81,5.64-4.19,9.88
		c2.17-2.49,5.14-3.74,8.89-3.74c3.59,0,6.45,1.27,8.59,3.79c2.14,2.53,3.21,5.8,3.21,9.8c0,4.25-1.16,7.65-3.47,10.2
		c-2.31,2.55-5.41,3.82-9.3,3.82c-3.95,0-7.15-1.52-9.6-4.55s-3.68-6.93-3.68-11.71v-2.01c0-7.59,1.62-13.39,4.86-17.4
		c3.24-4.01,8.06-6.06,14.46-6.16H419.49z M412.61,59.13c-1.79,0-3.45,0.54-4.96,1.61s-2.56,2.43-3.14,4.05v1.93
		c0,3.4,0.76,6.14,2.29,8.21c1.53,2.08,3.44,3.12,5.72,3.12c2.36,0,4.21-0.87,5.57-2.61c1.35-1.74,2.02-4.01,2.02-6.83
		c0-2.83-0.68-5.12-2.05-6.87C416.69,60.01,414.88,59.13,412.61,59.13z"/>
	<path class="st1" d="M457.36,64.23c0,6.14-1.05,10.7-3.14,13.68c-2.1,2.98-5.37,4.47-9.83,4.47c-4.4,0-7.66-1.46-9.77-4.38
		s-3.21-7.27-3.29-13.07v-7c0-6.06,1.05-10.56,3.14-13.51s5.38-4.42,9.86-4.42c4.44,0,7.7,1.42,9.8,4.26
		c2.1,2.84,3.17,7.23,3.23,13.15V64.23z M452.12,57.07c0-4.44-0.62-7.67-1.87-9.7c-1.25-2.03-3.22-3.04-5.92-3.04
		c-2.68,0-4.63,1.01-5.86,3.03c-1.23,2.02-1.86,5.13-1.9,9.32v8.38c0,4.46,0.65,7.75,1.94,9.87c1.29,2.12,3.25,3.19,5.88,3.19
		c2.59,0,4.51-1,5.76-3c1.25-2,1.91-5.15,1.97-9.46V57.07z"/>
</g>
<rect x="366.91" y="122.58" class="st8" width="122.34" height="122.34"/>
<g>
	<path class="st1" d="M390.27,180.99h3.94c2.47-0.04,4.42-0.69,5.83-1.95s2.12-2.97,2.12-5.13c0-4.83-2.41-7.25-7.22-7.25
		c-2.27,0-4.07,0.65-5.42,1.94c-1.35,1.29-2.03,3.01-2.03,5.14h-5.24c0-3.27,1.19-5.98,3.58-8.14c2.39-2.16,5.42-3.24,9.1-3.24
		c3.89,0,6.94,1.03,9.15,3.09s3.31,4.92,3.31,8.58c0,1.79-0.58,3.53-1.74,5.21c-1.16,1.68-2.74,2.94-4.74,3.77
		c2.27,0.72,4.02,1.91,5.25,3.57c1.24,1.66,1.85,3.69,1.85,6.09c0,3.7-1.21,6.64-3.62,8.81s-5.56,3.26-9.43,3.26
		s-7.02-1.05-9.45-3.14c-2.43-2.1-3.64-4.86-3.64-8.3h5.27c0,2.17,0.71,3.91,2.12,5.21s3.31,1.95,5.69,1.95
		c2.53,0,4.46-0.66,5.81-1.98s2.01-3.22,2.01-5.69c0-2.4-0.74-4.24-2.21-5.52s-3.6-1.94-6.37-1.98h-3.94V180.99z"/>
	<path class="st1" d="M441.07,186.57c0,6.14-1.05,10.7-3.14,13.68s-5.37,4.47-9.83,4.47c-4.4,0-7.66-1.46-9.77-4.38
		c-2.11-2.92-3.21-7.27-3.29-13.07v-7c0-6.06,1.05-10.56,3.14-13.51s5.38-4.42,9.86-4.42c4.44,0,7.7,1.42,9.8,4.26
		c2.1,2.84,3.17,7.23,3.23,13.16V186.57z M435.83,179.4c0-4.44-0.62-7.67-1.87-9.7c-1.25-2.03-3.22-3.04-5.92-3.04
		c-2.68,0-4.63,1.01-5.86,3.03s-1.86,5.13-1.9,9.32v8.38c0,4.46,0.65,7.75,1.94,9.87c1.29,2.12,3.25,3.19,5.88,3.19
		c2.59,0,4.51-1,5.76-3c1.25-2,1.91-5.15,1.97-9.46V179.4z"/>
	<path class="st1" d="M473.64,186.57c0,6.14-1.05,10.7-3.14,13.68s-5.37,4.47-9.83,4.47c-4.4,0-7.66-1.46-9.77-4.38
		c-2.11-2.92-3.21-7.27-3.29-13.07v-7c0-6.06,1.05-10.56,3.14-13.51s5.38-4.42,9.86-4.42c4.44,0,7.7,1.42,9.8,4.26
		c2.1,2.84,3.17,7.23,3.23,13.16V186.57z M468.4,179.4c0-4.44-0.62-7.67-1.87-9.7c-1.25-2.03-3.22-3.04-5.92-3.04
		c-2.68,0-4.63,1.01-5.86,3.03s-1.86,5.13-1.9,9.32v8.38c0,4.46,0.65,7.75,1.94,9.87c1.29,2.12,3.25,3.19,5.88,3.19
		c2.59,0,4.51-1,5.76-3c1.25-2,1.91-5.15,1.97-9.46V179.4z"/>
</g>
<rect x="489.24" y="0.24" class="st9" width="122.34" height="122.34"/>
<g>
	<path class="st10" d="M546.28,51.35c0,2.06-0.54,3.89-1.63,5.49c-1.08,1.6-2.55,2.86-4.4,3.77c2.15,0.93,3.86,2.28,5.11,4.05
		c1.25,1.77,1.88,3.79,1.88,6.03c0,3.57-1.2,6.41-3.61,8.52c-2.41,2.11-5.57,3.17-9.5,3.17c-3.96,0-7.14-1.06-9.53-3.19
		c-2.39-2.12-3.58-4.96-3.58-8.51c0-2.23,0.61-4.24,1.83-6.03c1.22-1.79,2.9-3.15,5.06-4.08c-1.83-0.91-3.28-2.16-4.33-3.77
		c-1.06-1.6-1.59-3.43-1.59-5.47c0-3.47,1.11-6.23,3.34-8.27s5.16-3.06,8.81-3.06c3.62,0,6.56,1.02,8.79,3.06
		C545.16,45.11,546.28,47.87,546.28,51.35z M542,70.57c0-2.3-0.73-4.18-2.19-5.64c-1.46-1.45-3.38-2.18-5.74-2.18
		s-4.25,0.72-5.68,2.15c-1.42,1.44-2.14,3.32-2.14,5.66c0,2.34,0.69,4.18,2.08,5.52c1.39,1.34,3.32,2.01,5.79,2.01
		c2.45,0,4.38-0.67,5.78-2.02C541.3,74.73,542,72.9,542,70.57z M534.13,44.32c-2.06,0-3.72,0.64-5,1.91
		c-1.27,1.27-1.91,3.01-1.91,5.2c0,2.1,0.63,3.79,1.88,5.08c1.25,1.29,2.93,1.94,5.03,1.94s3.77-0.65,5.03-1.94
		c1.26-1.29,1.88-2.99,1.88-5.08s-0.65-3.8-1.95-5.13C537.78,44.98,536.13,44.32,534.13,44.32z"/>
	<path class="st10" d="M579.69,64.23c0,6.14-1.05,10.7-3.14,13.68c-2.1,2.98-5.37,4.47-9.83,4.47c-4.4,0-7.66-1.46-9.77-4.38
		s-3.21-7.27-3.29-13.07v-7c0-6.06,1.05-10.56,3.14-13.51s5.38-4.42,9.86-4.42c4.44,0,7.7,1.42,9.8,4.26
		c2.1,2.84,3.17,7.23,3.23,13.15V64.23z M574.45,57.07c0-4.44-0.62-7.67-1.87-9.7c-1.25-2.03-3.22-3.04-5.92-3.04
		c-2.68,0-4.63,1.01-5.86,3.03c-1.23,2.02-1.86,5.13-1.9,9.32v8.38c0,4.46,0.65,7.75,1.94,9.87c1.29,2.12,3.25,3.19,5.88,3.19
		c2.59,0,4.51-1,5.76-3c1.25-2,1.91-5.15,1.97-9.46V57.07z"/>
</g>
<rect x="489.24" y="122.58" class="st11" width="122.34" height="122.34"/>
<g>
	<path class="st10" d="M507.39,183.48l2.1-20.56h21.13v4.84h-16.68l-1.25,11.24c2.02-1.19,4.31-1.78,6.88-1.78
		c3.76,0,6.74,1.24,8.95,3.72c2.21,2.48,3.31,5.84,3.31,10.07c0,4.25-1.15,7.59-3.44,10.04c-2.29,2.45-5.5,3.67-9.62,3.67
		c-3.64,0-6.62-1.01-8.92-3.03s-3.62-4.81-3.94-8.38h4.96c0.32,2.36,1.16,4.14,2.52,5.34c1.36,1.2,3.15,1.8,5.38,1.8
		c2.44,0,4.35-0.83,5.73-2.49c1.39-1.66,2.08-3.96,2.08-6.88c0-2.76-0.75-4.97-2.25-6.64c-1.5-1.67-3.5-2.51-5.99-2.51
		c-2.28,0-4.08,0.5-5.38,1.5l-1.39,1.13L507.39,183.48z"/>
	<path class="st10" d="M563.41,186.57c0,6.14-1.05,10.7-3.14,13.68s-5.37,4.47-9.83,4.47c-4.4,0-7.66-1.46-9.77-4.38
		c-2.11-2.92-3.21-7.27-3.29-13.07v-7c0-6.06,1.05-10.56,3.14-13.51s5.38-4.42,9.86-4.42c4.44,0,7.7,1.42,9.8,4.26
		c2.1,2.84,3.17,7.23,3.23,13.16V186.57z M558.17,179.4c0-4.44-0.62-7.67-1.87-9.7c-1.25-2.03-3.22-3.04-5.92-3.04
		c-2.68,0-4.63,1.01-5.86,3.03s-1.86,5.13-1.9,9.32v8.38c0,4.46,0.65,7.75,1.94,9.87c1.29,2.12,3.25,3.19,5.88,3.19
		c2.59,0,4.51-1,5.76-3c1.25-2,1.91-5.15,1.97-9.46V179.4z"/>
	<path class="st10" d="M595.98,186.57c0,6.14-1.05,10.7-3.14,13.68s-5.37,4.47-9.83,4.47c-4.4,0-7.66-1.46-9.77-4.38
		c-2.11-2.92-3.21-7.27-3.29-13.07v-7c0-6.06,1.05-10.56,3.14-13.51s5.38-4.42,9.86-4.42c4.44,0,7.7,1.42,9.8,4.26
		c2.1,2.84,3.17,7.23,3.23,13.16V186.57z M590.74,179.4c0-4.44-0.62-7.67-1.87-9.7c-1.25-2.03-3.22-3.04-5.92-3.04
		c-2.68,0-4.63,1.01-5.86,3.03s-1.86,5.13-1.9,9.32v8.38c0,4.46,0.65,7.75,1.94,9.87c1.29,2.12,3.25,3.19,5.88,3.19
		c2.59,0,4.51-1,5.76-3c1.25-2,1.91-5.15,1.97-9.46V179.4z"/>
</g>
</svg>
