<svg id="filter" xmlns="http://www.w3.org/2000/svg" width="34.1" height="31" viewBox="0 0 34.1 31">
  <path id="Pfad_3737" data-name="Pfad 3737" d="M923.788,272.95a6.987,6.987,0,0,1-6.7-5.037h-4.537a1.938,1.938,0,0,1,0-3.875h4.537a6.976,6.976,0,0,1,13.4,0h12.285a1.938,1.938,0,0,1,0,3.875H930.491A6.989,6.989,0,0,1,923.788,272.95Zm0-10.075a3.1,3.1,0,1,0,3.1,3.1A3.1,3.1,0,0,0,923.788,262.875Z" transform="translate(-910.613 -259)" fill="#fff"/>
  <path id="Pfad_3738" data-name="Pfad 3738" d="M931.538,270a6.989,6.989,0,0,1,6.7,5.037h4.535a1.938,1.938,0,0,1,0,3.875h-4.535a6.976,6.976,0,0,1-13.4,0H912.551a1.938,1.938,0,0,1,0-3.875h12.287A6.987,6.987,0,0,1,931.538,270Zm0,10.075a3.1,3.1,0,1,0-3.1-3.1A3.1,3.1,0,0,0,931.538,280.075Z" transform="translate(-910.613 -252.95)" fill="#fff"/>
</svg>
