<svg id="fullscreen" xmlns="http://www.w3.org/2000/svg" width="21" height="20.999" viewBox="0 0 21 20.999">
  <path id="Path_3761" data-name="Path 3761" d="M678.348,392.635H674.8v-3.553a1.489,1.489,0,0,0-2.977,0v5.042a1.489,1.489,0,0,0,1.489,1.489h5.042a1.489,1.489,0,0,0,0-2.977Z" transform="translate(-671.818 -374.613)" fill="#fff"/>
  <path id="Path_3762" data-name="Path 3762" d="M678.348,372.593h-5.042a1.489,1.489,0,0,0-1.489,1.489v5.042a1.489,1.489,0,1,0,2.977,0V375.57h3.553a1.489,1.489,0,0,0,0-2.977Z" transform="translate(-671.818 -372.593)" fill="#fff"/>
  <path id="Path_3763" data-name="Path 3763" d="M693.348,372.593h-5.041a1.489,1.489,0,1,0,0,2.977h3.553v3.553a1.489,1.489,0,1,0,2.977,0v-5.042A1.489,1.489,0,0,0,693.348,372.593Z" transform="translate(-673.837 -372.593)" fill="#fff"/>
  <path id="Path_3764" data-name="Path 3764" d="M693.348,387.593a1.489,1.489,0,0,0-1.489,1.489v3.553h-3.553a1.489,1.489,0,1,0,0,2.977h5.041a1.489,1.489,0,0,0,1.489-1.489v-5.042A1.489,1.489,0,0,0,693.348,387.593Z" transform="translate(-673.837 -374.613)" fill="#fff"/>
</svg>
