<svg xmlns="http://www.w3.org/2000/svg" width="20" height="19.999" viewBox="0 0 20 19.999">
  <path id="fullscreen" d="M708.1,376.2a1.132,1.132,0,0,1-1.112,1.111H702.54v4.444a1.112,1.112,0,0,1-2.223,0V376.2a1.112,1.112,0,0,1,1.112-1.111h5.555A1.111,1.111,0,0,1,708.1,376.2Zm-.713,16.746a1.105,1.105,0,0,0-.4-.08H702.54v-4.444a1.112,1.112,0,0,0-2.223,0v5.555a1.164,1.164,0,0,0,1.112,1.111h5.555a1.107,1.107,0,0,0,.4-2.142Zm12.222-5.555a1.1,1.1,0,0,0-1.51,1.031v4.444H713.65a1.112,1.112,0,0,0-1.111,1.111,1.164,1.164,0,0,0,1.112,1.111h5.555a1.111,1.111,0,0,0,1.111-1.111v-5.555A1.107,1.107,0,0,0,719.6,387.395Zm-.4-12.3h-5.555a1.111,1.111,0,1,0,0,2.222h4.444v4.444a1.112,1.112,0,0,0,2.223,0V376.2A1.111,1.111,0,0,0,719.206,375.093Z" transform="translate(-700.317 -375.093)" fill="#7b7b7b"/>
</svg>
