<svg id="favorit" xmlns="http://www.w3.org/2000/svg" width="33" height="30" viewBox="0 0 33 30">
  <path id="Path_3662" data-name="Path 3662" d="M18,33.011l-2.067-1.945a114.345,114.345,0,0,1-8.384-8.714A13.211,13.211,0,0,1,4,13.677,8.187,8.187,0,0,1,6.359,7.7a7.847,7.847,0,0,1,5.83-2.4,8.741,8.741,0,0,1,3.939.973,9.315,9.315,0,0,1,3.471,3.2,11.375,11.375,0,0,1,3.549-3.2A8.12,8.12,0,0,1,27.007,5.3a7.847,7.847,0,0,1,5.83,2.4A8.187,8.187,0,0,1,35.2,13.677a13.211,13.211,0,0,1-3.549,8.675,114.344,114.344,0,0,1-8.384,8.714L21.2,33.011a2.33,2.33,0,0,1-3.2,0Z" transform="translate(-3.098 -4.472)" opacity="0.5"/>
  <g id="Path_3682" data-name="Path 3682" transform="translate(-4 -5.3)" fill="none">
    <path d="M18.809,34.628l-2.186-2.059a120.989,120.989,0,0,1-8.869-9.223A13.985,13.985,0,0,1,4,14.166,8.667,8.667,0,0,1,6.5,7.842,8.3,8.3,0,0,1,12.663,5.3a9.242,9.242,0,0,1,4.166,1.029A9.855,9.855,0,0,1,20.5,9.712a12.035,12.035,0,0,1,3.754-3.382A8.586,8.586,0,0,1,28.337,5.3,8.3,8.3,0,0,1,34.5,7.842,8.667,8.667,0,0,1,37,14.166a13.985,13.985,0,0,1-3.754,9.181,120.988,120.988,0,0,1-8.869,9.223l-2.186,2.059a2.464,2.464,0,0,1-3.382,0Z" stroke="none"/>
    <path d="M 20.5 33.79999923706055 C 20.77474975585938 33.79999923706055 20.96417999267578 33.72591781616211 21.15385055541992 33.54430770874023 L 21.16288948059082 33.53572082519531 L 23.34744071960449 31.4784984588623 C 26.70303916931152 28.30862998962402 29.64987945556641 25.24459838867188 32.10610961914062 22.37150001525879 C 33.24729919433594 21.03662872314453 34.11093902587891 19.66275978088379 34.67303848266602 18.2880687713623 C 35.22177124023438 16.94606018066406 35.5 15.55904960632324 35.5 14.16554927825928 C 35.5 12.03362941741943 34.82419967651367 10.30891895294189 33.43399810791016 8.892868995666504 C 32.05141830444336 7.484579086303711 30.38434028625488 6.799999237060547 28.33749961853027 6.799999237060547 C 27.1452808380127 6.799999237060547 26.03960990905762 7.079409122467041 24.95730018615723 7.654179096221924 C 23.86067962646484 8.236569404602051 22.7606201171875 9.237089157104492 21.68767929077148 10.62795925140381 L 20.42672920227051 12.26255893707275 L 19.26168060302734 10.55827903747559 C 18.34049987792969 9.210719108581543 17.29652976989746 8.239459037780762 16.15877914428711 7.671469211578369 C 15.00041007995605 7.093209266662598 13.82409954071045 6.799999237060547 12.66250038146973 6.799999237060547 C 10.6156702041626 6.799999237060547 8.948590278625488 7.484579086303711 7.566009998321533 8.892868995666504 C 6.17579984664917 10.30891895294189 5.5 12.03362941741943 5.5 14.16554927825928 C 5.5 15.55904960632324 5.7782301902771 16.94606018066406 6.32696008682251 18.2880687713623 C 6.889060020446777 19.66275978088379 7.752699851989746 21.03662872314453 8.893890380859375 22.37150001525879 C 11.35013008117676 25.24458885192871 14.29697036743164 28.30862998962402 17.65085983276367 31.47690010070801 L 19.84614944458008 33.54430770874023 C 20.03582000732422 33.72591781616211 20.22525024414062 33.79999923706055 20.5 33.79999923706055 M 20.5 35.29999923706055 C 19.84000015258789 35.29999923706055 19.27651977539062 35.07563018798828 18.80875015258789 34.62772750854492 L 16.62249946594238 32.56890869140625 C 13.2127799987793 29.34789848327637 10.25597953796387 26.27310943603516 7.753749847412109 23.34622001647949 C 5.251530170440674 20.4193286895752 4 17.35881996154785 4 14.16554927825928 C 4 11.64453887939453 4.831600189208984 9.536979675292969 6.495629787445068 7.842019081115723 C 8.159649848937988 6.147059440612793 10.21473026275635 5.299999237060547 12.66250038146973 5.299999237060547 C 14.0649995803833 5.299999237060547 15.4534797668457 5.64285945892334 16.82875061035156 6.329409122467041 C 18.20402908325195 7.015969276428223 19.42749977111816 8.14285945892334 20.5 9.711769104003906 C 21.71027946472168 8.14285945892334 22.96096992492676 7.015969276428223 24.25374984741211 6.329409122467041 C 25.54652976989746 5.64285945892334 26.90777969360352 5.299999237060547 28.33749961853027 5.299999237060547 C 30.78528022766113 5.299999237060547 32.84035873413086 6.147059440612793 34.50437927246094 7.842019081115723 C 36.16839981079102 9.536979675292969 37 11.64453887939453 37 14.16554927825928 C 37 17.35881996154785 35.74847030639648 20.4193286895752 33.24625015258789 23.34622001647949 C 30.7440299987793 26.27310943603516 27.78722953796387 29.34789848327637 24.37750053405762 32.56890869140625 L 22.19124984741211 34.62772750854492 C 21.72348022460938 35.07563018798828 21.15999984741211 35.29999923706055 20.5 35.29999923706055 Z" stroke="none" fill="#fff"/>
  </g>
</svg>
