<svg xmlns="http://www.w3.org/2000/svg" width="26.571" height="33.214" viewBox="0 0 26.571 33.214">
  <path id="in_der_umgebung" d="M909.929,343.118a3.081,3.081,0,0,1-.992-.163,2.915,2.915,0,0,1-.938-.529,49.307,49.307,0,0,1-8.4-9.56,16.589,16.589,0,0,1-2.968-8.781,13.662,13.662,0,0,1,3.994-10.322,13.09,13.09,0,0,1,18.562,0,13.664,13.664,0,0,1,3.988,10.32,16.631,16.631,0,0,1-2.984,8.807,49.229,49.229,0,0,1-8.36,9.511,3.037,3.037,0,0,1-.872.526,2.838,2.838,0,0,1-1.006.19h-.02Zm-.026-29.881a9.847,9.847,0,0,0-6.945,2.887,10.333,10.333,0,0,0-3.012,7.811,13.324,13.324,0,0,0,2.387,7.05,46.075,46.075,0,0,0,7.567,8.688,46.034,46.034,0,0,0,7.55-8.663,13.359,13.359,0,0,0,2.4-7.078,10.34,10.34,0,0,0-3.007-7.808A9.847,9.847,0,0,0,909.9,313.237Zm0,16.043a6.088,6.088,0,1,1,6.089-6.088A6.1,6.1,0,0,1,909.9,329.279Zm0-8.856a2.768,2.768,0,1,0,2.768,2.768A2.772,2.772,0,0,0,909.9,320.423Z" transform="translate(-896.614 -309.904)" fill="#fff"/>
</svg>
