<?xml version="1.0" encoding="UTF-8"?><svg id="Layer_1" xmlns="http://www.w3.org/2000/svg" viewBox="0 0 16 16"><defs><style>.cls-1{fill:#b9b9b9;}.cls-1,.cls-2{stroke-width:0px;}.cls-2{fill:#fff;}</style></defs><path class="cls-1" d="m8,0C3.58,0,0,3.58,0,8s3.58,8,8,8,8-3.58,8-8S12.42,0,8,0Zm-1.53,4.05c0-.33.12-.64.36-.88.23-.23.54-.36.86-.36.33,0,.64.13.87.36.23.23.36.54.36.87,0,.33-.12.64-.36.87-.23.23-.54.36-.87.36-.66.01-1.21-.52-1.22-1.18,0-.02,0-.03,0-.05Zm3.5,8.15h-4.23v-1.19h.27c.18.02.36-.02.51-.12.1-.15.14-.33.12-.51v-2.75c.02-.18-.02-.36-.12-.52-.15-.1-.33-.14-.51-.12h-.27v-1.2h3.36v4.58c-.02.18.02.36.12.51.15.1.33.14.51.12h.23v1.19Z"/><path class="cls-2" d="m9.22,10.89c-.1-.15-.14-.33-.12-.51v-4.58h-3.36v1.2h.27c.18-.02.36.02.51.12.1.15.15.33.12.52v2.75c.02.18-.02.36-.12.51-.15.1-.33.14-.51.12h-.27v1.19h4.23v-1.19h-.23c-.18.02-.36-.02-.51-.12Z"/><path class="cls-2" d="m7.69,5.28c.33,0,.64-.12.87-.36.23-.23.36-.54.36-.87,0-.33-.12-.64-.36-.87-.23-.24-.54-.37-.87-.36-.33,0-.64.12-.86.36-.23.23-.36.55-.36.88,0,.02,0,.03,0,.05.01.66.56,1.19,1.22,1.18Z"/></svg>