<svg id="insta" xmlns="http://www.w3.org/2000/svg" width="35" height="35" viewBox="0 0 35 35">
  <path id="Pfad_3047" data-name="Pfad 3047" d="M35.809,10.29A12.788,12.788,0,0,0,35,6.044,8.967,8.967,0,0,0,29.873.923,12.828,12.828,0,0,0,25.626.11C23.752.021,23.158,0,18.4,0S13.057.021,11.19.1A12.8,12.8,0,0,0,6.943.916a8.541,8.541,0,0,0-3.1,2.024,8.617,8.617,0,0,0-2.017,3.1,12.82,12.82,0,0,0-.814,4.246C.919,12.157.9,12.752.9,17.5s.021,5.347.1,7.213a12.787,12.787,0,0,0,.814,4.246,8.966,8.966,0,0,0,5.122,5.121,12.83,12.83,0,0,0,4.247.813c1.867.082,2.462.1,7.215.1s5.348-.02,7.215-.1a12.792,12.792,0,0,0,4.247-.813,8.953,8.953,0,0,0,5.122-5.121,12.829,12.829,0,0,0,.814-4.246c.082-1.867.1-2.461.1-7.213S35.891,12.157,35.809,10.29ZM32.657,24.58a9.59,9.59,0,0,1-.6,3.248,5.806,5.806,0,0,1-3.324,3.323,9.633,9.633,0,0,1-3.248.6c-1.846.082-2.4.1-7.071.1s-5.232-.02-7.071-.1a9.593,9.593,0,0,1-3.248-.6,5.388,5.388,0,0,1-2.01-1.306,5.443,5.443,0,0,1-1.306-2.01,9.626,9.626,0,0,1-.6-3.248c-.082-1.846-.1-2.4-.1-7.07s.02-5.231.1-7.07a9.585,9.585,0,0,1,.6-3.248,5.32,5.32,0,0,1,1.313-2.01A5.434,5.434,0,0,1,8.1,3.884a9.636,9.636,0,0,1,3.248-.6c1.846-.082,2.4-.1,7.071-.1s5.232.021,7.071.1a9.6,9.6,0,0,1,3.248.6,5.382,5.382,0,0,1,2.01,1.306A5.44,5.44,0,0,1,32.055,7.2a9.629,9.629,0,0,1,.6,3.248c.082,1.846.1,2.4.1,7.07S32.739,22.734,32.657,24.58Z" transform="translate(-0.898 0)" fill="#dcdcdc"/>
  <path id="Pfad_3048" data-name="Pfad 3048" d="M133.877,124.281a8.695,8.695,0,1,0,8.7,8.695A8.7,8.7,0,0,0,133.877,124.281Zm0,14.335a5.64,5.64,0,1,1,5.642-5.64A5.642,5.642,0,0,1,133.877,138.616Z" transform="translate(-116.37 -115.472)" fill="#dcdcdc"/>
  <path id="Pfad_3049" data-name="Pfad 3049" d="M366.605,90.618a2.172,2.172,0,1,1-2.172-2.172A2.172,2.172,0,0,1,366.605,90.618Z" transform="translate(-337.621 -82.415)" fill="#dcdcdc"/>
</svg>
