<svg xmlns="http://www.w3.org/2000/svg" width="40" height="40" viewBox="0 0 40 40">
  <g id="login" transform="translate(-833.659 -250)">
    <g id="Gruppe_4056" data-name="Gruppe 4056" transform="translate(833.659 250)">
      <path id="Pfad_3734" data-name="Pfad 3734" d="M853.659,290a20,20,0,1,1,20-20A20.023,20.023,0,0,1,853.659,290Zm0-37a17,17,0,1,0,17,17A17.019,17.019,0,0,0,853.659,253Z" transform="translate(-833.659 -250)" fill="#7B7B7B"/>
      <path id="Pfad_3735" data-name="Pfad 3735" d="M865.062,283.772a8.919,8.919,0,0,0-2.528-2.7,13.41,13.41,0,0,0-3.942-1.913,17.3,17.3,0,0,0-9.863,0,13.412,13.412,0,0,0-3.937,1.909,8.948,8.948,0,0,0-2.533,2.7l-2.565-1.558a11.923,11.923,0,0,1,3.372-3.6,16.367,16.367,0,0,1,4.81-2.332,20.285,20.285,0,0,1,11.569,0,16.368,16.368,0,0,1,4.815,2.336,11.912,11.912,0,0,1,3.367,3.593Z" transform="translate(-833.659 -250)" fill="#7B7B7B"/>
      <path id="Pfad_3736" data-name="Pfad 3736" d="M853.659,271.779a7.234,7.234,0,1,1,7.235-7.235A7.242,7.242,0,0,1,853.659,271.779Zm0-11.469a4.234,4.234,0,1,0,4.235,4.234A4.238,4.238,0,0,0,853.659,260.31Z" transform="translate(-833.659 -250)" fill="#7B7B7B"/>
    </g>
  </g>
</svg>
