<svg xmlns="http://www.w3.org/2000/svg" width="17" height="17" viewBox="0 0 17 17">
  <path id="map" d="M17.617,23l-6.21-2.2L7.181,22.481a.754.754,0,0,1-.791-.024A.775.775,0,0,1,6,21.749V8.574a.881.881,0,0,1,.177-.543,1.085,1.085,0,0,1,.46-.354L11.407,6l6.21,2.172,4.2-1.676a.81.81,0,0,1,.791.035.748.748,0,0,1,.39.7v13.34a.634.634,0,0,1-.177.449,1.106,1.106,0,0,1-.437.283Zm-.8-1.771V9.306L12.186,7.747V19.671Zm1.417,0,3.353-1.11V8.031L18.231,9.306ZM7.417,20.946l3.353-1.275V7.747L7.417,8.857ZM18.231,9.306v0ZM10.769,7.747v0Z" transform="translate(-6 -6)" fill="#fff"/>
</svg>
