<svg xmlns="http://www.w3.org/2000/svg" width="27" height="24.444" viewBox="0 0 27 24.444">
  <path id="print" d="M93.364,216.165v-4.11H81.672v4.11H79.407v-5.242a1.109,1.109,0,0,1,.326-.809,1.087,1.087,0,0,1,.806-.331H94.5a1.13,1.13,0,0,1,1.14,1.14v5.242Zm-17.077,2.273h0ZM96,221.778a1.1,1.1,0,1,0-.766-.323A1.049,1.049,0,0,0,96,221.778ZM81.672,232H93.364v-5.922H81.672Zm0,2.225a2.272,2.272,0,0,1-2.265-2.265V228.24H75.154a1.115,1.115,0,0,1-1.132-1.132V219.9a3.624,3.624,0,0,1,1.067-2.652,3.566,3.566,0,0,1,2.639-1.078H97.307a3.577,3.577,0,0,1,2.647,1.078,3.623,3.623,0,0,1,1.068,2.652v7.212a1.087,1.087,0,0,1-.331.806,1.109,1.109,0,0,1-.809.326H95.637v3.721a2.276,2.276,0,0,1-2.273,2.265Zm17.077-8.259v-6.079a1.411,1.411,0,0,0-.412-1.035,1.382,1.382,0,0,0-1.022-.415H77.729a1.389,1.389,0,0,0-1.024.42,1.414,1.414,0,0,0-.417,1.038v6.072h3.121v-2.161H95.637v2.161Z" transform="translate(-74.022 -209.782)" fill="#fff"/>
</svg>
