<svg xmlns="http://www.w3.org/2000/svg" width="12.874" height="15.192" viewBox="0 0 12.874 15.192">
  <g id="scroll_down" transform="translate(-414.126 -582)">
    <path id="pfeil_dropdown" d="M766.554,743.66a1.316,1.316,0,0,1,.376-.922,1.338,1.338,0,0,1,1.883-.027l4.177,4.03,4.179-4.03a1.338,1.338,0,0,1,1.883.027,1.321,1.321,0,0,1-.029,1.873l-5.105,4.925a1.337,1.337,0,0,1-1.856,0l-5.105-4.925A1.316,1.316,0,0,1,766.554,743.66Z" transform="translate(-352.428 -152.717)" fill="#fff"/>
    <path id="pfeil_dropdown-2" data-name="pfeil_dropdown" d="M766.554,743.66a1.316,1.316,0,0,1,.376-.922,1.338,1.338,0,0,1,1.883-.027l4.177,4.03,4.179-4.03a1.338,1.338,0,0,1,1.883.027,1.321,1.321,0,0,1-.029,1.873l-5.105,4.925a1.337,1.337,0,0,1-1.856,0l-5.105-4.925A1.316,1.316,0,0,1,766.554,743.66Z" transform="translate(-352.428 -160.336)" fill="#fff"/>
  </g>
</svg>
