<svg xmlns="http://www.w3.org/2000/svg" width="35" height="35" viewBox="0 0 35 35">
  <g id="tourenportal" transform="translate(-972 -170.001)">
    <g id="Gruppe_5549" data-name="Gruppe 5549" transform="translate(972 170.001)">
      <g id="Gruppe_4204" data-name="Gruppe 4204">
        <circle id="Ellipse_25" data-name="Ellipse 25" cx="17.5" cy="17.5" r="17.5" fill="#d9000d"/>
      </g>
    </g>
    <path id="Pfad_3861" data-name="Pfad 3861" d="M-15.416,17.7l-2.393-2.518a.96.96,0,0,0-.7-.3h-5.531V10.953a3.029,3.029,0,0,0-3.026-3.026,3.029,3.029,0,0,0-3.026,3.026V11.7h-5.5a.962.962,0,0,0-.7.3l-2.394,2.518a.964.964,0,0,0,0,1.327l2.394,2.519a.96.96,0,0,0,.7.3h5.5V29.1a.962.962,0,0,0,.962.962H-25a.962.962,0,0,0,.962-.962V21.847h5.531a.962.962,0,0,0,.7-.3l2.393-2.519A.962.962,0,0,0-15.416,17.7Zm-19.758-.963-1.479-1.557,1.479-1.556h5.086V16.74Zm9.212,11.4h-2.2V10.953a1.1,1.1,0,0,1,1.1-1.1,1.1,1.1,0,0,1,1.1,1.1Zm7.043-8.213h-5.118V16.811h5.118l1.478,1.556Z" transform="translate(1016.5 168.372)" fill="#fff"/>
  </g>
</svg>
