<svg id="twitter" xmlns="http://www.w3.org/2000/svg" width="39" height="31.675" viewBox="0 0 39 31.675">
  <path id="twitter-2" data-name="twitter" d="M34.991,11.275c.025.346.025.693.025,1.039,0,10.567-8.042,22.742-22.742,22.742A22.588,22.588,0,0,1,0,31.468a16.534,16.534,0,0,0,1.93.1,16.008,16.008,0,0,0,9.923-3.415A8.007,8.007,0,0,1,4.38,22.609a10.08,10.08,0,0,0,1.51.124,8.454,8.454,0,0,0,2.1-.272,7.994,7.994,0,0,1-6.409-7.845v-.1A8.05,8.05,0,0,0,5.2,15.531,8,8,0,0,1,2.722,4.841,22.72,22.72,0,0,0,19.2,13.2a9.023,9.023,0,0,1-.2-1.831A8,8,0,0,1,32.838,5.9a15.737,15.737,0,0,0,5.073-1.93,7.971,7.971,0,0,1-3.514,4.4A16.024,16.024,0,0,0,39,7.142a17.182,17.182,0,0,1-4.009,4.133Z" transform="translate(0 -3.381)" fill="#dcdcdc"/>
</svg>
