<svg xmlns="http://www.w3.org/2000/svg" width="25" height="26" viewBox="0 0 25 26">
  <g id="webcam" transform="translate(-315 -1397)">
    <rect id="Rechteck_2079" data-name="Rechteck 2079" width="25" height="26" transform="translate(315 1397)" fill="none"/>
    <g id="Gruppe_5468" data-name="Gruppe 5468" transform="translate(-138 1145)">
      <circle id="Ellipse_124" data-name="Ellipse 124" cx="9.913" cy="9.913" r="9.913" transform="translate(455 253)" fill="none" stroke="#1a1a1a" stroke-linecap="round" stroke-linejoin="round" stroke-width="1.5"/>
      <circle id="Ellipse_125" data-name="Ellipse 125" cx="4.696" cy="4.696" r="4.696" transform="translate(460.217 258.217)" fill="none" stroke="#1a1a1a" stroke-linecap="round" stroke-linejoin="round" stroke-width="1.5"/>
      <circle id="Ellipse_126" data-name="Ellipse 126" cx="1.565" cy="1.565" r="1.565" transform="translate(463.348 261.348)" fill="none" stroke="#1a1a1a" stroke-linecap="round" stroke-linejoin="round" stroke-width="1.5"/>
      <line id="Linie_13" data-name="Linie 13" transform="translate(464.913 255.609)" fill="none" stroke="#1a1a1a" stroke-linecap="round" stroke-linejoin="round" stroke-width="1.5"/>
      <path id="Pfad_3840" data-name="Pfad 3840" d="M460.386,291.3a6.971,6.971,0,0,0-1.191,2.8,1.044,1.044,0,0,0,1.031,1.222H473.6a1.044,1.044,0,0,0,1.031-1.222,6.971,6.971,0,0,0-1.191-2.8" transform="translate(-1.998 -18.316)" fill="none" stroke="#1a1a1a" stroke-linecap="round" stroke-linejoin="round" stroke-width="1.5"/>
    </g>
  </g>
</svg>
