<svg id="youtube" xmlns="http://www.w3.org/2000/svg" width="35" height="41.463" viewBox="0 0 35 41.463">
  <path id="Pfad_3375" data-name="Pfad 3375" d="M41.462,41.249a4.421,4.421,0,0,0-3.784-3.439,117.592,117.592,0,0,0-13.1-.485,117.629,117.629,0,0,0-13.107.485,4.42,4.42,0,0,0-3.781,3.439,37.475,37.475,0,0,0-.617,8.274,37.467,37.467,0,0,0,.61,8.273,4.42,4.42,0,0,0,3.782,3.439,117.593,117.593,0,0,0,13.106.485,117.507,117.507,0,0,0,13.107-.485A4.421,4.421,0,0,0,41.454,57.8a37.5,37.5,0,0,0,.613-8.273A37.524,37.524,0,0,0,41.462,41.249ZM17.05,43.3H14.517V56.764H12.164V43.3H9.677V41.1H17.05Zm6.391,13.461H21.325V55.491a3.39,3.39,0,0,1-2.417,1.434,1.3,1.3,0,0,1-1.363-.867,5.957,5.957,0,0,1-.187-1.736v-9.23h2.115v8.594a6.585,6.585,0,0,0,.019.823c.051.328.211.495.495.495.424,0,.868-.327,1.337-.99V45.092h2.117V56.765Zm8.035-3.5a9.325,9.325,0,0,1-.214,2.352,1.675,1.675,0,0,1-1.69,1.312,2.882,2.882,0,0,1-2.186-1.291v1.131H25.272V41.1h2.115v5.116a2.865,2.865,0,0,1,2.186-1.266,1.673,1.673,0,0,1,1.69,1.317,8.964,8.964,0,0,1,.214,2.347Zm7.982-1.947h-4.23v2.069c0,1.081.353,1.62,1.08,1.62a.909.909,0,0,0,.945-.848,13.312,13.312,0,0,0,.048-1.433h2.158v.309c0,.682-.026,1.151-.045,1.363a3.014,3.014,0,0,1-.494,1.267,2.927,2.927,0,0,1-2.558,1.266,3.029,3.029,0,0,1-2.56-1.2,4.521,4.521,0,0,1-.679-2.745V48.9a4.543,4.543,0,0,1,.654-2.75,3.007,3.007,0,0,1,2.533-1.2,2.938,2.938,0,0,1,2.5,1.2,4.588,4.588,0,0,1,.655,2.75v2.417Z" transform="translate(-7.067 -20.257)" fill="#FFFFFF"/>
  <path id="Pfad_3376" data-name="Pfad 3376" d="M69.718,58.163q-1.06,0-1.061,1.619v1.08h2.115v-1.08C70.771,58.7,70.418,58.163,69.718,58.163Z" transform="translate(-40.495 -31.567)" fill="#FFFFFF"/>
  <path id="Pfad_3377" data-name="Pfad 3377" d="M52.56,58.163a1.515,1.515,0,0,0-1.055.514v7.114a1.509,1.509,0,0,0,1.055.521c.61,0,.92-.521.92-1.575V59.756C53.48,58.7,53.17,58.163,52.56,58.163Z" transform="translate(-31.187 -31.567)" fill="#FFFFFF"/>
  <path id="Pfad_3378" data-name="Pfad 3378" d="M54.537,20.779a3.434,3.434,0,0,0,2.442-1.449v1.287h2.138V8.82H56.978v9.016c-.474.669-.923,1-1.35,1-.286,0-.454-.169-.5-.5a4.958,4.958,0,0,1-.026-.831V8.82H52.97v9.328a5.96,5.96,0,0,0,.189,1.754A1.313,1.313,0,0,0,54.537,20.779Z" transform="translate(-31.983 -4.789)" fill="#FFFFFF"/>
  <path id="Pfad_3379" data-name="Pfad 3379" d="M20.326,9.419V15.83H22.7V9.419L25.548,0h-2.4L21.534,6.216,19.851,0H17.357c.5,1.467,1.02,2.942,1.519,4.411A38.995,38.995,0,0,1,20.326,9.419Z" transform="translate(-12.653)" fill="#FFFFFF"/>
  <path id="Pfad_3380" data-name="Pfad 3380" d="M38.471,20.609A2.914,2.914,0,0,0,40.964,19.4a4.614,4.614,0,0,0,.663-2.774V12.5a4.623,4.623,0,0,0-.663-2.779,3.169,3.169,0,0,0-4.982,0,4.585,4.585,0,0,0-.669,2.779v4.131a4.573,4.573,0,0,0,.669,2.774A2.913,2.913,0,0,0,38.471,20.609Zm-1.02-8.541c0-1.091.331-1.636,1.02-1.636s1.019.544,1.019,1.636V17.03c0,1.091-.33,1.637-1.019,1.637s-1.02-.546-1.02-1.637Z" transform="translate(-22.397 -4.616)" fill="#FFFFFF"/>
</svg>
