<svg xmlns="http://www.w3.org/2000/svg" width="24" height="24" viewBox="0 0 24 24">
  <path id="zoom_in" data-name="zoom in" d="M608.318,397.093a12,12,0,1,1,12-12A12.013,12.013,0,0,1,608.318,397.093Zm0-21.818a9.818,9.818,0,1,0,9.818,9.818A9.829,9.829,0,0,0,608.318,375.275ZM612.682,384h-3.273v-3.273a1.091,1.091,0,1,0-2.182,0V384h-3.273a1.091,1.091,0,0,0,0,2.182h3.273v3.273a1.091,1.091,0,1,0,2.182,0v-3.273h3.273a1.091,1.091,0,0,0,0-2.182Z" transform="translate(-596.318 -373.093)" fill="#7b7b7b"/>
</svg>
