<?xml version="1.0" standalone="no"?>
<!DOCTYPE svg PUBLIC "-//W3C//DTD SVG 20010904//EN"
 "http://www.w3.org/TR/2001/REC-SVG-20010904/DTD/svg10.dtd">
<svg version="1.0" xmlns="http://www.w3.org/2000/svg"
 width="800.000000pt" height="800.000000pt" viewBox="0 0 800.000000 800.000000"
 preserveAspectRatio="xMidYMid meet">
<metadata>
Created by potrace 1.14, written by Peter Selinger 2001-2017
</metadata>
<g transform="translate(0.000000,800.000000) scale(0.100000,-0.100000)"
fill="#000000" stroke="none">
<path d="M3733 7990 c-597 -58 -1153 -282 -1613 -650 -135 -108 -352 -325
-460 -460 -563 -704 -780 -1620 -594 -2503 70 -329 206 -669 385 -955 69 -112
144 -214 373 -507 276 -352 1306 -1734 2062 -2764 l112 -152 38 53 c666 916
1879 2541 2227 2983 162 205 287 387 364 530 188 349 303 717 349 1111 23 194
15 582 -15 778 -135 867 -636 1626 -1384 2096 -346 217 -764 367 -1188 425
-135 19 -525 27 -656 15z m927 -1665 l0 -655 660 0 660 0 0 -665 0 -665 -660
0 -660 0 0 -655 0 -655 -665 0 -665 0 0 655 0 655 -660 0 -660 0 2 663 3 662
658 3 657 2 0 648 c0 357 3 652 7 655 3 4 303 7 665 7 l658 0 0 -655z"/>
</g>
</svg>
